<svg xmlns="http://www.w3.org/2000/svg" version="1.1" xmlns:xlink="http://www.w3.org/1999/xlink" xmlns:svgjs="http://svgjs.dev/svgjs" width="100%" height="100%" viewBox="0 0 1000 600"><rect width="1000" height="600" x="0" y="0" fill="#8bd8bd"/><g><rect width="333.3333333333333" height="333.3333333333333" rx="13.333333333333334" ry="13.333333333333334" y="315.93636890545486" fill="#243665" transform="matrix(0.42558391026829245,0,0,0.42558391026829245,0,94.61192610802604)" x="293.714111328125"/><path d="M470.6880053775119 407.6030395753303L530.6705599587756 557.6030391316749L514.9698428119591 557.6030391316749Q512.2367550123281 557.6030391316749 510.57945709127523 556.2364952318594Q508.8930837680986 554.8699513320439 508.04989710651034 552.776522379135L508.04989710651034 552.776522379135L494.03555328287047 516.577646735086L426.7259973664259 516.577646735086L412.711653542786 552.776522379135Q411.9556930875689 554.6664235171777 410.1820935580211 556.1492690254881Q408.40849402847334 557.6030391316749 405.7917078373373 557.6030391316749L405.7917078373373 557.6030391316749L390.0909906905208 557.6030391316749L450.0735452717844 407.6030395753303L470.6880053775119 407.6030395753303ZM455.91770109865496 441.01067661550087L432.3666253784303 501.923644064724L488.3658498687423 501.923644064724L464.8147741485176 440.894375007006Q462.5178173807426 435.2537469950015 460.33716222146256 426.76372957487115L460.33716222146256 426.76372957487115Q459.1741461365132 431.0668890891838 458.0692808558113 434.67223895252687Q456.9644155751094 438.2775888158699 455.91770109865496 441.01067661550087L455.91770109865496 441.01067661550087Z " fill="#8bd8bd" transform="matrix(0.42558391026829245,0,0,0.42558391026829245,0,94.61192610802604)"/><path d="M773.9782110405213 410.906802903065L821.3092010986192 529.2686922436989L808.920090758642 529.2686922436989Q806.7634678476089 529.2686922436989 805.4557284228335 528.1903807881823Q804.1250462011324 527.1120693326658 803.4597050902817 525.4601879540021L803.4597050902817 525.4601879540021L792.4012769720058 496.896405781277L739.2887020885851 496.896405781277L728.2302739703092 525.4601879540021Q727.6337612502361 526.9514697541846 726.2342506377573 528.1215523974047Q724.8347400252784 529.2686922436989 722.7698883019489 529.2686922436989L722.7698883019489 529.2686922436989L710.3807779619717 529.2686922436989L757.7117680200697 410.906802903065L773.9782110405213 410.906802903065ZM762.3232702021724 437.26807657090535L743.7396046922065 485.33323613063163L787.9274315714584 485.33323613063163L769.3437660614927 437.1763053832018Q767.531285104348 432.7254027795804 765.8105753349066 426.0261060772224L765.8105753349066 426.0261060772224Q764.8928634578713 429.42164002225314 764.0210371746878 432.2665468410627Q763.1492108915041 435.11145365987227 762.3232702021724 437.26807657090535L762.3232702021724 437.26807657090535ZM859.3024728078825 530.5993744654002L859.3024728078825 530.5993744654002Q849.3911845359008 530.5993744654002 844.0684556490958 525.0472176093363Q838.7227839653649 519.5180035501983 838.7227839653649 509.124916542773L838.7227839653649 509.124916542773L838.7227839653649 457.91659380420066L828.6508961149019 457.91659380420066Q827.3431566901266 457.91659380420066 826.4254448130912 457.11359591179473Q825.5077329360558 456.33354081631467 825.5077329360558 454.68165943765104L825.5077329360558 454.68165943765104L825.5077329360558 448.8312462215507L839.2275254977344 447.0875936551836L842.6230594427651 421.2310615197127Q842.7836590212463 419.99215048571494 843.6784281013557 419.21209539023494Q844.5961399783911 418.43204029475487 845.99565059087 418.43204029475487L845.99565059087 418.43204029475487L853.4291167948563 418.43204029475487L853.4291167948563 447.2481932336648L877.3813967854788 447.2481932336648L877.3813967854788 457.91659380420066L853.4291167948563 457.91659380420066L853.4291167948563 508.1154334780341Q853.4291167948563 513.4152195679133 855.9987100505552 515.9618700266863Q858.5453605093284 518.5314632823853 862.6062355652098 518.5314632823853L862.6062355652098 518.5314632823853Q864.923458054724 518.5314632823853 866.5982822303135 517.9120077653864Q868.296049202829 517.2925522483876 869.5349602368267 516.5583827467593Q870.7738712708243 515.8012704482051 871.6456975540079 515.1818149312062Q872.5175238371916 514.5623594142074 873.1828649480422 514.5623594142074L873.1828649480422 514.5623594142074Q874.3300047943363 514.5623594142074 875.2477166713717 515.9618700266863L875.2477166713717 515.9618700266863L879.5380196965119 522.9823658860067Q875.7295154068153 526.5384994095186 870.3609009261585 528.5574655389964Q864.9922864455017 530.5993744654002 859.3024728078825 530.5993744654002ZM897.2039733294423 407.6030401457378L911.9103061589337 407.6030401457378L911.9103061589337 529.2686922436989L897.2039733294423 529.2686922436989L897.2039733294423 407.6030401457378ZM999.2994196496246 475.74314701561224L999.2994196496246 529.2686922436989L992.7607225257477 529.2686922436989Q990.6270424116406 529.2686922436989 989.2963601899394 528.6033511328483Q987.988620765164 527.9380100219976 987.575650420498 525.8043299078904L987.575650420498 525.8043299078904L985.9237690418345 518.0267217500159Q982.6200062845071 521.0092853503807 979.4768431056611 523.3723934337468Q976.3336799268151 525.7125587201868 972.8693175910066 527.3185545049987Q969.4049552551983 528.9474930867365 965.4817369808721 529.7734337760683Q961.558518706546 530.5993744654002 956.7634741490363 530.5993744654002L956.7634741490363 530.5993744654002Q951.8766584038231 530.5993744654002 947.6322409725346 529.222806649847Q943.3878235412461 527.8691816312199 940.2446603624 525.1389887970397Q937.1014971835541 522.4087959628596 935.2431306325575 518.2332069223488Q933.3847640815609 514.0805606787638 933.3847640815609 508.3678042442188L933.3847640815609 508.3678042442188Q933.3847640815609 503.41216010822797 936.114956915741 498.82360072305124Q938.8451497499211 494.2579841348004 944.9020481383545 490.7018506112884Q950.9818893237136 487.14571708777646 960.8014064079919 484.87438019211396Q970.6438662891959 482.60304329645146 984.8454575863179 482.28184413948907L984.8454575863179 482.28184413948907L984.8454575863179 475.74314701561224Q984.8454575863179 465.9924583221117 980.669868545807 461.01387138919495Q976.4942795052962 456.01234165935233 968.3266437996817 456.01234165935233L968.3266437996817 456.01234165935233Q962.958029319025 456.01234165935233 959.2871818108836 457.36596667797943Q955.5933915058163 458.74253449353245 952.9090842654879 460.41735866912194Q950.2247770251595 462.11512564163735 948.2975820833852 463.49169345719037Q946.3474443446851 464.8453184758175 944.4431921998367 464.8453184758175L944.4431921998367 464.8453184758175Q942.9748531965802 464.8453184758175 941.8506561472119 464.06526338033746Q940.7264590978436 463.2852082848574 940.0840607839189 462.11512564163735L940.0840607839189 462.11512564163735L937.4226963405164 457.4118522718312Q944.3743638090591 450.7125555694732 952.3813999361926 447.4087928121459Q960.3884360633259 444.1050300548187 970.1391247568265 444.1050300548187L970.1391247568265 444.1050300548187Q977.1596206161469 444.1050300548187 982.6200062845071 446.42225254433293Q988.0574491559416 448.73947503384716 991.7741822579349 452.86917848050626Q995.490915359928 456.9988819271653 997.3951675047763 462.8722379401915Q999.2994196496246 468.7226511562919 999.2994196496246 475.74314701561224L999.2994196496246 475.74314701561224ZM961.1455483618802 520.2751158487524L961.1455483618802 520.2751158487524Q965.0228810423544 520.2751158487524 968.2348726119781 519.4721179563466Q971.4698069785277 518.6920628608665 974.3147137973374 517.2466666545358Q977.1596206161469 515.8012704482051 979.7521566687717 513.7364187248756Q982.3676355183225 511.67156700154607 984.8454575863179 509.03314535506945L984.8454575863179 509.03314535506945L984.8454575863179 491.59661969139785Q974.6817985481514 491.9407616452861 967.5695315011276 493.2255582731356Q960.4802072510295 494.4874121040592 956.0063618504822 496.55226382738874Q951.5554592468608 498.61711555071827 949.536493117383 501.43907957260194Q947.5175269879053 504.2381007975598 947.5175269879053 507.7024631333682L947.5175269879053 507.7024631333682Q947.5175269879053 511.0062258906954 948.5728956464959 513.4152195679133Q949.6512071020124 515.8012704482051 951.4636880591572 517.3384378422393Q953.2991118132279 518.8526624393477 955.7769338812233 519.5638891440501Q958.2547559492187 520.2751158487524 961.1455483618802 520.2751158487524ZM1072.808141000156 454.01631832680044L1069.5043782428286 459.3849328074572Q1068.5178379750157 461.22035656152786 1066.452986251686 461.22035656152786L1066.452986251686 461.22035656152786Q1065.2140752176883 461.22035656152786 1063.6310222298025 460.3026446844925Q1062.0709120388424 459.3849328074572 1059.79957514318 458.2836785550148Q1057.5282382475173 457.1594815056465 1054.3850750686713 456.21882683168525Q1051.2419118898251 455.2552293607981 1046.951608864685 455.2552293607981L1046.951608864685 455.2552293607981Q1043.234875762692 455.2552293607981 1040.252312162327 456.21882683168525Q1037.292691358888 457.1594815056465 1035.1819540417066 458.81136288431014Q1033.0712167245254 460.4632442629737 1031.969962472083 462.6657527678586Q1030.8457654227145 464.8453184758175 1030.8457654227145 467.4149117315165L1030.8457654227145 467.4149117315165Q1030.8457654227145 470.6269033011402 1032.7041319737114 472.78352621217323Q1034.5624985247077 474.91720632628045 1037.6138905158505 476.50025931416644Q1040.6652825069928 478.0603695051265 1044.565557984393 479.2533949452725Q1048.4428906648675 480.4464203854184 1052.5267085176747 481.8229882009714Q1056.6105263704821 483.17661321959855 1060.4878590509563 484.8284945982622Q1064.3881345283567 486.4803759769258 1067.4395265194992 488.95819804492123Q1070.4909185106417 491.4360201129167 1072.349285061638 495.03803923028045Q1074.207651612635 498.61711555071827 1074.207651612635 503.66453087441266L1074.207651612635 503.66453087441266Q1074.207651612635 509.44611569973534 1072.1427998893053 514.3558742418745Q1070.0779481659756 519.2656327840136 1066.0400159070202 522.8676519013773Q1061.9791408511387 526.469671018741 1056.1287276350386 528.5345227420705Q1050.2553716220123 530.5993744654002 1042.5695346518412 530.5993744654002L1042.5695346518412 530.5993744654002Q1033.8283290230795 530.5993744654002 1026.7160619760557 527.7315248496647Q1019.6037949290317 524.8866180308551 1014.6481507930407 520.4357154272336L1014.6481507930407 520.4357154272336L1018.1354559257752 514.8147301803922Q1018.7778542396998 513.7364187248756 1019.6955661167352 513.1628488017285Q1020.6132779937707 512.5892788785814 1022.0816169970271 512.5892788785814L1022.0816169970271 512.5892788785814Q1023.5728987972095 512.5892788785814 1025.224780175873 513.7364187248756Q1026.876661554537 514.9065013680956 1029.2397696379028 516.3060119805746Q1031.579934924343 517.7055225930535 1034.929583275522 518.8526624393477Q1038.279231626701 520.0227450825678 1043.3266469503953 520.0227450825678L1043.3266469503953 520.0227450825678Q1047.6169499755356 520.0227450825678 1050.8289415451593 518.8985480331994Q1054.063875911709 517.797293780757 1056.197556025816 515.8930416359087Q1058.3541789368492 513.9887894910603 1059.3866047985139 511.51096742306487Q1060.4190306601788 509.03314535506945 1060.4190306601788 506.23412413011164L1060.4190306601788 506.23412413011164Q1060.4190306601788 502.7468189973773 1058.5606641091822 500.4754821017149Q1056.7022975581856 498.2041452060524 1053.650905567043 496.5981494212405Q1050.5765707789747 494.9921536364286 1046.6533525046484 493.7991281962827Q1042.7301342303224 492.60610275613675 1038.6463163775152 491.2754205344355Q1034.5624985247077 489.9447383127342 1030.6392802503817 488.2699141371447Q1026.7160619760557 486.5721471646293 1023.6646699849131 484.00255390893034Q1020.6132779937707 481.4559034501573 1018.754911442774 477.69328475431234Q1016.8965448917775 473.93066605846747 1016.8965448917775 468.5620515778107L1016.8965448917775 468.5620515778107Q1016.8965448917775 463.767007020301 1018.8696254274034 459.3619900105313Q1020.8427059630294 454.9340302038358 1024.651210252726 451.58438185265675Q1028.4597145424227 448.23473350147776 1033.9889286015607 446.26165296585174Q1039.5181426606987 444.28857243022577 1046.6304097077227 444.28857243022577L1046.6304097077227 444.28857243022577Q1054.8898166010408 444.28857243022577 1061.4514565218435 446.8811084828506Q1068.0130964426462 449.47364453547544 1072.808141000156 454.01631832680044L1072.808141000156 454.01631832680044ZM1198.19052620011 470.12216176877075L1198.19052620011 470.12216176877075Q1198.19052620011 483.42898398578325 1193.9690515657476 494.326812525578Q1189.747576931385 505.22464106537274 1182.0846827581397 513.0022492232473Q1174.3988457879686 520.756914584196 1163.6616168266553 525.0242748124103Q1152.9243878653417 529.2686922436989 1139.8699364145139 529.2686922436989L1139.8699364145139 529.2686922436989L1095.5903383475584 529.2686922436989L1095.5903383475584 410.906802903065L1139.8699364145139 410.906802903065Q1152.9243878653417 410.906802903065 1163.6616168266553 415.1741631312794Q1174.3988457879686 419.41858056256785 1182.0846827581397 427.2191315173683Q1189.747576931385 435.01968247216877 1193.9690515657476 445.9404538088894Q1198.19052620011 456.8382823486841 1198.19052620011 470.12216176877075ZM1181.7405408042514 470.12216176877075L1181.7405408042514 470.12216176877075Q1181.7405408042514 459.22433322897604 1178.7809200008126 450.64372717869554Q1175.7983564004476 442.04017833148913 1170.3379707320873 436.09799392768525Q1164.9005278606528 430.15580952388143 1157.1229197027783 427.01264634503536Q1149.3682543418297 423.8694831661893 1139.8699364145139 423.8694831661893L1139.8699364145139 423.8694831661893L1111.6961817895287 423.8694831661893L1111.6961817895287 516.3060119805746L1139.8699364145139 516.3060119805746Q1149.3682543418297 516.3060119805746 1157.1229197027783 513.1628488017285Q1164.9005278606528 510.01968562288243 1170.3379707320873 504.12338681293033Q1175.7983564004476 498.2041452060524 1178.7809200008126 489.6235391557719Q1181.7405408042514 481.0429331054914 1181.7405408042514 470.12216176877075ZM1250.7983595511614 444.28857243022577L1250.7983595511614 444.28857243022577Q1258.3006541459254 444.28857243022577 1264.678751691321 446.78933729514705Q1271.0339064397908 449.3130449569943 1275.6454086218932 454.0622039206522Q1280.2798536009218 458.81136288431014 1282.8723896535466 465.7859731497787Q1285.4878685030974 472.78352621217323 1285.4878685030974 481.6853314194161L1285.4878685030974 481.6853314194161Q1285.4878685030974 485.17263655215044 1284.7307562045432 486.3197763984446Q1283.996586702915 487.4669162447388 1281.9317349795854 487.4669162447388L1281.9317349795854 487.4669162447388L1226.2725096373915 487.4669162447388Q1226.4331092158727 495.40512398109456 1228.406189751499 501.27847999412074Q1230.4022130840508 507.1288932102211 1233.8665754198591 511.0521114845472Q1237.3309377556675 514.9753297588733 1242.1259823131772 516.9254674975734Q1246.921026870687 518.8526624393477 1252.8632112744908 518.8526624393477L1252.8632112744908 518.8526624393477Q1258.3924253336288 518.8526624393477 1262.4074147956585 517.590808608424Q1266.3994614607623 516.3060119805746 1269.2902538734236 514.8147301803922Q1272.181046286085 513.3234483802097 1274.131184024785 512.0386517523602Q1276.0583789665593 510.7767979214366 1277.480832375964 510.7767979214366L1277.480832375964 510.7767979214366Q1279.293313333109 510.7767979214366 1280.2798536009218 512.1763085339155L1280.2798536009218 512.1763085339155L1284.4095570475808 517.5449230145723Q1281.6793642134007 520.8486857718996 1277.89380272063 523.2806222460432Q1274.085298430933 525.7125587201868 1269.7491098119413 527.2956117080728Q1265.4129211929492 528.8557218990329 1260.7784762139206 529.635776994513Q1256.166974031818 530.415832089993 1251.624300240493 530.415832089993L1251.624300240493 530.415832089993Q1242.951923002509 530.415832089993 1235.6331707831523 527.5020968804058Q1228.3373613607214 524.5654188738927 1222.9916896769903 518.8985480331994Q1217.6689607901853 513.2546199894321 1214.7093399867463 504.9034419084104Q1211.7267763863815 496.55226382738874 1211.7267763863815 485.7462064752975L1211.7267763863815 485.7462064752975Q1211.7267763863815 476.98205804961 1214.4110836267098 469.38799226714247Q1217.0953908670383 461.793926484675 1222.1428061907327 456.21882683168525Q1227.1672787175012 450.64372717869554 1234.4401453430064 447.4546784059977Q1241.7130119685114 444.28857243022577 1250.7983595511614 444.28857243022577ZM1251.1195587081238 455.094629782317L1251.1195587081238 455.094629782317Q1240.4741009345134 455.094629782317 1234.3483741553027 461.2432993584538Q1228.2455901730177 467.4149117315165 1226.754308372835 478.3127402713112L1226.754308372835 478.3127402713112L1272.2728174737886 478.3127402713112Q1272.2728174737886 473.1964965568392 1270.8733068613094 468.9291363286248Q1269.4508534519048 464.6847188973363 1266.7436034146504 461.58744131234204Q1264.0134105804702 458.49016372734775 1260.0901923061442 456.79239675483234Q1256.166974031818 455.094629782317 1251.1195587081238 455.094629782317ZM1325.614820326468 529.2686922436989L1291.5218240946047 445.59631185500115L1303.5667924806937 445.59631185500115Q1305.310445047061 445.59631185500115 1306.457584893355 446.5140237320365Q1307.6276675365752 447.4087928121459 1308.1094662720186 448.64770384614366L1308.1094662720186 448.64770384614366L1329.3315534284611 502.5173910281185Q1330.501636071681 505.4770118315575 1331.1669771825318 508.45957543192236Q1331.8093754964566 511.41919623536137 1332.4058882165295 514.3099886480227L1332.4058882165295 514.3099886480227Q1333.0482865304543 511.41919623536137 1333.8053988290085 508.45957543192236Q1334.5395683306367 505.4770118315575 1335.7096509738567 502.5173910281185L1335.7096509738567 502.5173910281185L1357.1841088964838 448.64770384614366Q1357.6659076319274 447.3399644213683 1358.7901046812958 446.4681381381847Q1359.891358933738 445.59631185500115 1361.5432403124018 445.59631185500115L1361.5432403124018 445.59631185500115L1373.0375815722696 445.59631185500115L1338.9216425434804 529.2686922436989L1325.614820326468 529.2686922436989ZM1417.6383787961872 444.28857243022577L1417.6383787961872 444.28857243022577Q1425.1406733909512 444.28857243022577 1431.5187709363468 446.78933729514705Q1437.8739256848166 449.3130449569943 1442.4854278669193 454.0622039206522Q1447.1198728459478 458.81136288431014 1449.7124088985727 465.7859731497787Q1452.3278877481234 472.78352621217323 1452.3278877481234 481.6853314194161L1452.3278877481234 481.6853314194161Q1452.3278877481234 485.17263655215044 1451.5707754495693 486.3197763984446Q1450.836605947941 487.4669162447388 1448.7717542246114 487.4669162447388L1448.7717542246114 487.4669162447388L1393.1125288824178 487.4669162447388Q1393.2731284608988 495.40512398109456 1395.2462089965247 501.27847999412074Q1397.2422323290766 507.1288932102211 1400.706594664885 511.0521114845472Q1404.1709570006935 514.9753297588733 1408.9660015582033 516.9254674975734Q1413.7610461157128 518.8526624393477 1419.7032305195166 518.8526624393477L1419.7032305195166 518.8526624393477Q1425.2324445786548 518.8526624393477 1429.2474340406843 517.590808608424Q1433.239480705788 516.3060119805746 1436.1302731184496 514.8147301803922Q1439.0210655311107 513.3234483802097 1440.971203269811 512.0386517523602Q1442.8983982115851 510.7767979214366 1444.32085162099 510.7767979214366L1444.32085162099 510.7767979214366Q1446.1333325781347 510.7767979214366 1447.1198728459478 512.1763085339155L1447.1198728459478 512.1763085339155L1451.249576292607 517.5449230145723Q1448.5193834584265 520.8486857718996 1444.7338219656558 523.2806222460432Q1440.9253176759591 525.7125587201868 1436.589129056967 527.2956117080728Q1432.2529404379752 528.8557218990329 1427.6184954589467 529.635776994513Q1423.0069932768442 530.415832089993 1418.4643194855191 530.415832089993L1418.4643194855191 530.415832089993Q1409.7919422475352 530.415832089993 1402.4731900281781 527.5020968804058Q1395.1773806057472 524.5654188738927 1389.8317089220163 518.8985480331994Q1384.5089800352112 513.2546199894321 1381.5493592317723 504.9034419084104Q1378.5667956314073 496.55226382738874 1378.5667956314073 485.7462064752975L1378.5667956314073 485.7462064752975Q1378.5667956314073 476.98205804961 1381.2511028717358 469.38799226714247Q1383.9354101120643 461.793926484675 1388.9828254357585 456.21882683168525Q1394.007297962527 450.64372717869554 1401.2801645880322 447.4546784059977Q1408.5530312135375 444.28857243022577 1417.6383787961872 444.28857243022577ZM1417.9595779531496 455.094629782317L1417.9595779531496 455.094629782317Q1407.3141201795397 455.094629782317 1401.1883934003286 461.2432993584538Q1395.0856094180435 467.4149117315165 1393.5943276178612 478.3127402713112L1393.5943276178612 478.3127402713112L1439.1128367188144 478.3127402713112Q1439.1128367188144 473.1964965568392 1437.7133261063354 468.9291363286248Q1436.2908726969308 464.6847188973363 1433.5836226596764 461.58744131234204Q1430.8534298254963 458.49016372734775 1426.9302115511703 456.79239675483234Q1423.0069932768442 455.094629782317 1417.9595779531496 455.094629782317ZM1472.724034215234 407.6030401457378L1487.4303670447252 407.6030401457378L1487.4303670447252 529.2686922436989L1472.724034215234 529.2686922436989L1472.724034215234 407.6030401457378ZM1547.2192958335781 444.28857243022577L1547.2192958335781 444.28857243022577Q1556.3964146039316 444.28857243022577 1563.7839952140662 447.3399644213683Q1571.1715758242008 450.3913564125108 1576.3337051325248 456.01234165935233Q1581.4958344408483 461.6333269061938 1584.2719128688802 469.59447743947544Q1587.0250484999863 477.55562797275707 1587.0250484999863 487.39808785396116L1587.0250484999863 487.39808785396116Q1587.0250484999863 497.3093761259429 1584.2719128688802 505.22464106537274Q1581.4958344408483 513.1628488017285 1576.3337051325248 518.78383404857Q1571.1715758242008 524.4048192954115 1563.7839952140662 527.4103256927023Q1556.3964146039316 530.415832089993 1547.2192958335781 530.415832089993L1547.2192958335781 530.415832089993Q1538.0651198601506 530.415832089993 1530.65459645309 527.4103256927023Q1523.2670158429555 524.4048192954115 1518.0590009407802 518.78383404857Q1512.8739288355303 513.1628488017285 1510.0519648136467 505.22464106537274Q1507.2529435886888 497.3093761259429 1507.2529435886888 487.39808785396116L1507.2529435886888 487.39808785396116Q1507.2529435886888 477.55562797275707 1510.0519648136467 469.59447743947544Q1512.8739288355303 461.6333269061938 1518.0590009407802 456.01234165935233Q1523.2670158429555 450.3913564125108 1530.65459645309 447.3399644213683Q1538.0651198601506 444.28857243022577 1547.2192958335781 444.28857243022577ZM1547.2192958335781 518.9444336270512L1547.2192958335781 518.9444336270512Q1559.6084061735553 518.9444336270512 1565.7341329527662 510.6391411398813Q1571.8369169350512 502.3338486527114 1571.8369169350512 487.4669162447388L1571.8369169350512 487.4669162447388Q1571.8369169350512 472.53115544598853 1565.7341329527662 464.1799773649669Q1559.6084061735553 455.85174208087113 1547.2192958335781 455.85174208087113L1547.2192958335781 455.85174208087113Q1540.955912272812 455.85174208087113 1536.3214672937834 457.9854221949783Q1531.6870223147548 460.1420451060114 1528.5897447297607 464.1799773649669Q1525.4924671447664 468.2408524208483 1523.978242547658 474.1371512308004Q1522.4410751536238 480.0334500407525 1522.4410751536238 487.4669162447388L1522.4410751536238 487.4669162447388Q1522.4410751536238 494.9003824487251 1523.978242547658 500.77373846175135Q1525.4924671447664 506.64709447477753 1528.5897447297607 510.6391411398813Q1531.6870223147548 514.654130601911 1536.3214672937834 516.7878107160182Q1540.955912272812 518.9444336270512 1547.2192958335781 518.9444336270512ZM1619.9020764947777 557.6030464471652L1605.1957436652863 557.6030464471652L1605.1957436652863 445.59631185500115L1613.9598920909739 445.59631185500115Q1617.1030552698198 445.59631185500115 1617.9289959591515 448.64770384614366L1617.9289959591515 448.64770384614366L1619.1679069931495 458.5589921181254Q1624.5365214738063 452.0432377911744 1631.4193605515711 448.07413392299657Q1638.3251424262621 444.1050300548187 1647.3187188212087 444.1050300548187L1647.3187188212087 444.1050300548187Q1654.522757055936 444.1050300548187 1660.3731702720365 446.8811084828506Q1666.2465262850628 449.6571869108825 1670.3762297317217 455.0487441884652Q1674.5059331783807 460.4632442629737 1676.7313844801915 468.4702803901071Q1678.9568357820021 476.50025931416644 1678.9568357820021 486.8933463215917L1678.9568357820021 486.8933463215917Q1678.9568357820021 496.13929348272285 1676.4790137140067 504.12338681293033Q1674.0011916460112 512.084537346212 1669.3896894639088 517.9120077653864Q1664.7552444848802 523.7394781845609 1658.033004985596 527.0891265357399Q1651.2878226893865 530.415832089993 1642.867816217587 530.415832089993L1642.867816217587 530.415832089993Q1635.1131508566386 530.415832089993 1629.6068795944266 527.8691816312199Q1624.1235511291402 525.299588375521 1619.9020764947777 520.5963150057148L1619.9020764947777 520.5963150057148L1619.9020764947777 557.6030464471652ZM1642.4548458729214 456.01234165935233L1642.4548458729214 456.01234165935233Q1635.2737504351198 456.01234165935233 1629.8592503606112 459.31610441667954Q1624.4447502861026 462.6198671740068 1619.9020764947777 468.6538227655142L1619.9020764947777 468.6538227655142L1619.9020764947777 509.124916542773Q1623.962951550659 514.5623594142074 1628.7809389050944 516.7878107160182Q1633.621869056456 519.0362048147547 1639.5640534602599 519.0362048147547L1639.5640534602599 519.0362048147547Q1651.2189942986088 519.0362048147547 1657.4823778593752 510.6850267337331Q1663.7687042170674 502.3338486527114 1663.7687042170674 486.8933463215917L1663.7687042170674 486.8933463215917Q1663.7687042170674 478.72571061597716 1662.3233080107366 472.8523546029509Q1660.8779118044058 467.0019413868506 1658.1477189702255 463.23932269100567Q1655.4175261360456 459.47670399516073 1651.448422267868 457.7330514287936Q1647.5022611966158 456.01234165935233 1642.4548458729214 456.01234165935233ZM1711.0996942751653 529.2686922436989L1696.3933614456737 529.2686922436989L1696.3933614456737 445.59631185500115L1705.1345670744354 445.59631185500115Q1708.2777302532813 445.59631185500115 1709.1036709426135 448.64770384614366L1709.1036709426135 448.64770384614366L1710.1819823981298 457.25125269335Q1714.8164273771583 451.53849625880497 1720.5521266086294 447.91353434451537Q1726.2878258401001 444.28857243022577 1733.8818916225678 444.28857243022577L1733.8818916225678 444.28857243022577Q1742.3936692820707 444.28857243022577 1747.647569778098 448.9918458000319Q1752.8785274771994 453.69511916983805 1755.1957499667137 461.70215529697145L1755.1957499667137 461.70215529697145Q1756.9394025330807 457.1594815056465 1759.7843093518904 453.85571874831925Q1762.6292161707001 450.551955990992 1766.1853496942122 448.4182758768848Q1769.7414832177242 446.26165296585174 1773.7335298828275 445.27511269803875Q1777.748519344857 444.28857243022577 1781.8782227915162 444.28857243022577L1781.8782227915162 444.28857243022577Q1788.4857483061705 444.28857243022577 1793.6478776144945 446.37636695048116Q1798.8100069228185 448.48710426766246 1802.3890832432562 452.54797932354387Q1805.99110236062 456.5859115824994 1807.8953545054683 462.4822103924515Q1809.7996066503165 468.4014519993295 1809.7996066503165 475.995517781797L1809.7996066503165 475.995517781797L1809.7996066503165 529.2686922436989L1795.0932738208253 529.2686922436989L1795.0932738208253 475.995517781797Q1795.0932738208253 466.17600069751876 1790.8029707956848 461.0826997799726Q1786.489724973619 456.01234165935233 1778.3220892680042 456.01234165935233L1778.3220892680042 456.01234165935233Q1774.6971273537147 456.01234165935233 1771.4163073933132 457.2971382872018Q1768.158430229838 458.5589921181254 1765.6806081618424 461.03681418612086Q1763.202786093847 463.5146362541163 1761.7573898875162 467.27725494996116Q1760.3119936811859 471.0398736458061 1760.3119936811859 475.995517781797L1760.3119936811859 475.995517781797L1760.3119936811859 529.2686922436989L1745.6056608516942 529.2686922436989L1745.6056608516942 475.995517781797Q1745.6056608516942 465.92362993133406 1741.5677285927386 460.96798579534317Q1737.529796333783 456.01234165935233 1729.7521881759085 456.01234165935233L1729.7521881759085 456.01234165935233Q1724.3147453044744 456.01234165935233 1719.634414731594 458.9490196658654Q1714.9770269556398 461.86275487545265 1711.0996942751653 466.91017019914705L1711.0996942751653 466.91017019914705L1711.0996942751653 529.2686922436989ZM1865.1376328355482 444.28857243022577L1865.1376328355482 444.28857243022577Q1872.6399274303121 444.28857243022577 1878.995082178782 446.78933729514705Q1885.3731797241776 449.3130449569943 1889.98468190628 454.0622039206522Q1894.6191268853086 458.81136288431014 1897.2116629379334 465.7859731497787Q1899.827141787484 472.78352621217323 1899.827141787484 481.6853314194161L1899.827141787484 481.6853314194161Q1899.827141787484 485.17263655215044 1899.0700294889298 486.3197763984446Q1898.3358599873018 487.4669162447388 1896.271008263972 487.4669162447388L1896.271008263972 487.4669162447388L1840.5888401248526 487.4669162447388Q1840.7723825002595 495.40512398109456 1842.7454630358857 501.27847999412074Q1844.7185435715114 507.1288932102211 1848.205848704246 511.0521114845472Q1851.6702110400543 514.9753297588733 1856.465255597564 516.9254674975734Q1861.2373573581476 518.8526624393477 1867.2024845588776 518.8526624393477L1867.2024845588776 518.8526624393477Q1872.7316986180158 518.8526624393477 1876.7237452831191 517.590808608424Q1880.738734745149 516.3060119805746 1883.6295271578101 514.8147301803922Q1886.5203195704717 513.3234483802097 1888.4704573091717 512.0386517523602Q1890.397652250946 510.7767979214366 1891.7971628634245 510.7767979214366L1891.7971628634245 510.7767979214366Q1893.6325866174957 510.7767979214366 1894.6191268853086 512.1763085339155L1894.6191268853086 512.1763085339155L1898.7488303319678 517.5449230145723Q1896.0186374977875 520.8486857718996 1892.2101332080906 523.2806222460432Q1888.4245717153203 525.7125587201868 1884.088383096328 527.2956117080728Q1879.7521944773362 528.8557218990329 1875.1177494983071 529.635776994513Q1870.5062473162047 530.415832089993 1865.9635735248798 530.415832089993L1865.9635735248798 530.415832089993Q1857.2911962868957 530.415832089993 1849.972444067539 527.5020968804058Q1842.653691848182 524.5654188738927 1837.3309629613773 518.8985480331994Q1832.008234074572 513.2546199894321 1829.0256704742073 504.9034419084104Q1826.0660496707683 496.55226382738874 1826.0660496707683 485.7462064752975L1826.0660496707683 485.7462064752975Q1826.0660496707683 476.98205804961 1828.7503569110968 469.38799226714247Q1831.4346641514248 461.793926484675 1836.4591366781933 456.21882683168525Q1841.506552001888 450.64372717869554 1848.7794186273932 447.4546784059977Q1856.0522852528984 444.28857243022577 1865.1376328355482 444.28857243022577ZM1865.4588319925106 455.094629782317L1865.4588319925106 455.094629782317Q1854.8133742189002 455.094629782317 1848.6876474396895 461.2432993584538Q1842.5848634574045 467.4149117315165 1841.0935816572219 478.3127402713112L1841.0935816572219 478.3127402713112L1886.6120907581753 478.3127402713112Q1886.6120907581753 473.1964965568392 1885.1896373487702 468.9291363286248Q1883.7901267362913 464.6847188973363 1881.0599339021114 461.58744131234204Q1878.3526838648572 458.49016372734775 1874.429465590531 456.79239675483234Q1870.5062473162047 455.094629782317 1865.4588319925106 455.094629782317ZM1933.2777397054224 529.2686922436989L1918.5714068759312 529.2686922436989L1918.5714068759312 445.59631185500115L1927.3126125046929 445.59631185500115Q1930.4557756835388 445.59631185500115 1931.2817163728705 448.64770384614366L1931.2817163728705 448.64770384614366L1932.4517990160907 457.7330514287936Q1937.8892418875253 451.7220386342121 1944.634424183735 448.0053055322189Q1951.3566636830187 444.28857243022577 1960.189640499484 444.28857243022577L1960.189640499484 444.28857243022577Q1967.0495367803233 444.28857243022577 1972.303437276351 446.55990932588827Q1977.534394975452 448.8312462215507 1981.0446429051126 452.9838924651357Q1984.5548908347728 457.1594815056465 1986.3673717919173 463.0328375186727Q1988.202795545988 468.883250734773 1988.202795545988 475.995517781797L1988.202795545988 475.995517781797L1988.202795545988 529.2686922436989L1973.4964627164968 529.2686922436989L1973.4964627164968 475.995517781797Q1973.4964627164968 466.49719985448115 1969.1602740975045 461.2432993584538Q1964.8240854785126 456.01234165935233 1955.899337474344 456.01234165935233L1955.899337474344 456.01234165935233Q1949.383583147393 456.01234165935233 1943.7167123066993 459.15550483819834Q1938.0498414660065 462.27572522011855 1933.2777397054224 467.64433970077533L1933.2777397054224 467.64433970077533L1933.2777397054224 529.2686922436989ZM2035.7632135733447 530.5993744654002L2035.7632135733447 530.5993744654002Q2025.8519253013633 530.5993744654002 2020.529196414558 525.0472176093363Q2015.206467527753 519.5180035501983 2015.206467527753 509.124916542773L2015.206467527753 509.124916542773L2015.206467527753 457.91659380420066L2005.1345796772903 457.91659380420066Q2003.8038974555889 457.91659380420066 2002.8861855785535 457.11359591179473Q2001.9914164984443 456.33354081631467 2001.9914164984443 454.68165943765104L2001.9914164984443 454.68165943765104L2001.9914164984443 448.8312462215507L2015.6882662631965 447.0875936551836L2019.0838002082273 421.2310615197127Q2019.2443997867085 419.99215048571494 2020.1621116637439 419.21209539023494Q2021.0568807438535 418.43204029475487 2022.4793341532582 418.43204029475487L2022.4793341532582 418.43204029475487L2029.9128003572446 418.43204029475487L2029.9128003572446 447.2481932336648L2053.865080347867 447.2481932336648L2053.865080347867 457.91659380420066L2029.9128003572446 457.91659380420066L2029.9128003572446 508.1154334780341Q2029.9128003572446 513.4152195679133 2032.4594508160176 515.9618700266863Q2035.0290440717167 518.5314632823853 2039.0669763306723 518.5314632823853L2039.0669763306723 518.5314632823853Q2041.3841988201862 518.5314632823853 2043.0819657927018 517.9120077653864Q2044.7797327652174 517.2925522483876 2046.0186437992147 516.5583827467593Q2047.2575548332125 515.8012704482051 2048.1064383194703 515.1818149312062Q2048.978264602654 514.5623594142074 2049.6436057135047 514.5623594142074L2049.6436057135047 514.5623594142074Q2050.790745559799 514.5623594142074 2051.708457436834 515.9618700266863L2051.708457436834 515.9618700266863L2055.998760461974 522.9823658860067Q2052.2131989692034 526.5384994095186 2046.8445844885464 528.5574655389964Q2041.4759700078898 530.5993744654002 2035.7632135733447 530.5993744654002Z " fill="#243665" transform="matrix(0.42558391026829245,0,0,0.42558391026829245,0,94.61192610802604)"/></g></svg>